<?xml version="1.0" encoding="UTF-8" standalone="no"?>
<!DOCTYPE svg PUBLIC "-//W3C//DTD SVG 1.1//EN" "http://www.w3.org/Graphics/SVG/1.1/DTD/svg11.dtd">
<svg width="100%" height="100%" viewBox="0 0 417 245" version="1.1" xmlns="http://www.w3.org/2000/svg" xmlns:xlink="http://www.w3.org/1999/xlink" xml:space="preserve" xmlns:serif="http://www.serif.com/" style="fill-rule:evenodd;clip-rule:evenodd;stroke-linecap:round;stroke-linejoin:round;stroke-miterlimit:1.5;">
    <g transform="matrix(1,0,0,1,5.73183,98.6088)">
        <g id="Titel">
            <g transform="matrix(61.1111,0,0,61.1111,25.0053,68.2245)">
                <path d="M0.541,-0.035C0.512,-0.022 0.482,-0.012 0.45,-0.005C0.417,0.003 0.384,0.007 0.35,0.007C0.299,0.007 0.254,-0.001 0.216,-0.017C0.177,-0.032 0.146,-0.055 0.121,-0.084C0.095,-0.113 0.077,-0.148 0.065,-0.189C0.053,-0.229 0.047,-0.274 0.047,-0.323C0.047,-0.375 0.054,-0.423 0.067,-0.467C0.08,-0.51 0.1,-0.548 0.127,-0.581C0.154,-0.613 0.187,-0.638 0.228,-0.656C0.269,-0.673 0.316,-0.682 0.37,-0.682C0.397,-0.682 0.425,-0.68 0.454,-0.675C0.483,-0.67 0.509,-0.662 0.533,-0.653L0.517,-0.573C0.49,-0.584 0.464,-0.593 0.438,-0.599C0.412,-0.604 0.386,-0.607 0.359,-0.607C0.322,-0.607 0.29,-0.6 0.263,-0.586C0.235,-0.572 0.212,-0.553 0.194,-0.528C0.176,-0.503 0.163,-0.474 0.154,-0.442C0.145,-0.409 0.141,-0.373 0.141,-0.335C0.141,-0.25 0.16,-0.184 0.198,-0.139C0.236,-0.093 0.292,-0.07 0.367,-0.07C0.392,-0.07 0.418,-0.074 0.447,-0.081C0.476,-0.088 0.501,-0.097 0.524,-0.108L0.541,-0.035Z" style="fill-rule:nonzero;"/>
            </g>
            <g transform="matrix(61.1111,0,0,61.1111,60.7553,68.2245)">
                <path d="M0.525,-0L0.525,-0.313L0.174,-0.313L0.174,-0L0.087,-0L0.087,-0.675L0.174,-0.675L0.174,-0.387L0.525,-0.387L0.525,-0.675L0.612,-0.675L0.612,-0L0.525,-0Z" style="fill-rule:nonzero;"/>
            </g>
            <g transform="matrix(61.1111,0,0,61.1111,103.472,68.2245)">
                <path d="M0.333,-0.497C0.327,-0.514 0.322,-0.531 0.317,-0.547C0.312,-0.562 0.308,-0.577 0.304,-0.591L0.303,-0.591C0.298,-0.572 0.293,-0.555 0.288,-0.54C0.283,-0.525 0.279,-0.511 0.274,-0.498L0.18,-0.232L0.427,-0.232L0.333,-0.497ZM0.505,-0L0.449,-0.163L0.158,-0.163L0.101,-0L0.011,-0L0.255,-0.675L0.36,-0.675L0.603,-0L0.505,-0Z" style="fill-rule:nonzero;"/>
            </g>
            <g transform="matrix(61.1111,0,0,61.1111,140.994,68.2245)">
                <rect x="0.087" y="-0.675" width="0.087" height="0.675" style="fill-rule:nonzero;"/>
            </g>
            <g transform="matrix(33.3333,0,0,33.3333,25.0053,112.669)">
                <path d="M0.525,-0L0.525,-0.313L0.174,-0.313L0.174,-0L0.087,-0L0.087,-0.675L0.174,-0.675L0.174,-0.387L0.525,-0.387L0.525,-0.675L0.612,-0.675L0.612,-0L0.525,-0Z" style="fill-rule:nonzero;"/>
            </g>
            <g transform="matrix(33.3333,0,0,33.3333,48.3053,112.669)">
                <path d="M0.406,-0C0.406,-0.018 0.407,-0.037 0.408,-0.057C0.409,-0.076 0.411,-0.093 0.414,-0.107L0.412,-0.107C0.397,-0.071 0.375,-0.043 0.345,-0.022C0.314,-0.001 0.278,0.009 0.236,0.009C0.209,0.009 0.185,0.005 0.166,-0.003C0.147,-0.011 0.131,-0.022 0.12,-0.037C0.108,-0.051 0.099,-0.068 0.095,-0.087C0.09,-0.106 0.087,-0.127 0.087,-0.15L0.087,-0.497L0.172,-0.497L0.172,-0.176C0.172,-0.137 0.178,-0.109 0.191,-0.09C0.204,-0.071 0.226,-0.062 0.259,-0.062C0.28,-0.062 0.299,-0.067 0.317,-0.077C0.334,-0.087 0.35,-0.101 0.363,-0.119C0.376,-0.136 0.387,-0.157 0.394,-0.182C0.401,-0.206 0.404,-0.232 0.404,-0.259L0.404,-0.497L0.489,-0.497L0.489,-0L0.406,-0Z" style="fill-rule:nonzero;"/>
            </g>
            <g transform="matrix(33.3333,0,0,33.3333,67.5053,112.669)">
                <path d="M0.708,-0L0.708,-0.32C0.708,-0.359 0.702,-0.388 0.69,-0.407C0.677,-0.426 0.656,-0.435 0.625,-0.435C0.607,-0.435 0.589,-0.43 0.572,-0.421C0.555,-0.412 0.539,-0.398 0.526,-0.381C0.512,-0.364 0.501,-0.343 0.494,-0.318C0.486,-0.293 0.482,-0.266 0.482,-0.236L0.482,-0L0.398,-0L0.398,-0.32C0.398,-0.339 0.397,-0.356 0.394,-0.37C0.391,-0.384 0.387,-0.396 0.381,-0.406C0.374,-0.415 0.366,-0.423 0.355,-0.428C0.343,-0.432 0.33,-0.435 0.314,-0.435C0.295,-0.435 0.276,-0.43 0.259,-0.421C0.242,-0.411 0.227,-0.397 0.214,-0.379C0.201,-0.361 0.19,-0.34 0.183,-0.316C0.176,-0.291 0.172,-0.265 0.172,-0.236L0.172,-0L0.087,-0L0.087,-0.497L0.17,-0.497C0.17,-0.479 0.169,-0.46 0.168,-0.441C0.167,-0.421 0.165,-0.404 0.162,-0.39L0.164,-0.389C0.179,-0.425 0.201,-0.454 0.232,-0.475C0.263,-0.496 0.298,-0.506 0.337,-0.506C0.36,-0.506 0.379,-0.503 0.396,-0.497C0.413,-0.491 0.427,-0.483 0.438,-0.473C0.448,-0.462 0.457,-0.45 0.463,-0.436C0.469,-0.422 0.473,-0.407 0.474,-0.391C0.479,-0.404 0.487,-0.417 0.497,-0.43C0.506,-0.443 0.518,-0.456 0.533,-0.468C0.547,-0.479 0.564,-0.489 0.583,-0.496C0.602,-0.503 0.623,-0.506 0.646,-0.506C0.699,-0.506 0.736,-0.492 0.759,-0.463C0.782,-0.434 0.793,-0.395 0.793,-0.345L0.793,-0L0.708,-0Z" style="fill-rule:nonzero;"/>
            </g>
            <g transform="matrix(33.3333,0,0,33.3333,96.8386,112.669)">
                <path d="M0.347,-0.234C0.307,-0.234 0.273,-0.232 0.245,-0.227C0.217,-0.222 0.195,-0.215 0.178,-0.206C0.161,-0.197 0.15,-0.186 0.143,-0.175C0.136,-0.163 0.132,-0.15 0.132,-0.136C0.132,-0.113 0.139,-0.095 0.153,-0.081C0.167,-0.066 0.186,-0.059 0.209,-0.059C0.229,-0.059 0.248,-0.064 0.265,-0.073C0.282,-0.082 0.296,-0.094 0.309,-0.11C0.321,-0.125 0.33,-0.142 0.337,-0.162C0.344,-0.181 0.347,-0.2 0.347,-0.219L0.347,-0.234ZM0.352,-0C0.352,-0.024 0.352,-0.044 0.353,-0.059C0.354,-0.074 0.355,-0.088 0.357,-0.101L0.355,-0.101C0.342,-0.069 0.321,-0.043 0.291,-0.022C0.26,-0.001 0.225,0.009 0.185,0.009C0.144,0.009 0.111,-0.003 0.086,-0.028C0.061,-0.052 0.048,-0.084 0.048,-0.124C0.048,-0.177 0.074,-0.219 0.127,-0.25C0.179,-0.28 0.252,-0.295 0.347,-0.295L0.347,-0.323C0.347,-0.363 0.339,-0.392 0.323,-0.411C0.307,-0.43 0.279,-0.439 0.24,-0.439C0.217,-0.439 0.192,-0.436 0.165,-0.43C0.138,-0.423 0.113,-0.415 0.089,-0.404L0.074,-0.471C0.103,-0.482 0.132,-0.49 0.162,-0.497C0.192,-0.503 0.221,-0.506 0.25,-0.506C0.284,-0.506 0.313,-0.502 0.336,-0.494C0.359,-0.486 0.378,-0.474 0.393,-0.46C0.407,-0.444 0.417,-0.427 0.424,-0.406C0.43,-0.385 0.433,-0.36 0.433,-0.332L0.433,-0.145C0.433,-0.112 0.433,-0.085 0.434,-0.063C0.434,-0.04 0.434,-0.019 0.435,-0L0.352,-0Z" style="fill-rule:nonzero;"/>
            </g>
            <g transform="matrix(33.3333,0,0,33.3333,114.205,112.669)">
                <path d="M0.404,-0L0.404,-0.32C0.404,-0.359 0.398,-0.388 0.385,-0.407C0.372,-0.426 0.349,-0.435 0.317,-0.435C0.296,-0.435 0.277,-0.43 0.26,-0.421C0.242,-0.411 0.226,-0.397 0.213,-0.38C0.2,-0.362 0.19,-0.341 0.183,-0.317C0.175,-0.292 0.172,-0.266 0.172,-0.238L0.172,-0L0.087,-0L0.087,-0.497L0.17,-0.497C0.17,-0.481 0.169,-0.463 0.168,-0.443C0.167,-0.422 0.165,-0.405 0.162,-0.39L0.164,-0.39C0.179,-0.425 0.201,-0.454 0.232,-0.475C0.262,-0.496 0.298,-0.506 0.339,-0.506C0.366,-0.506 0.39,-0.502 0.409,-0.495C0.428,-0.487 0.444,-0.476 0.456,-0.462C0.467,-0.447 0.476,-0.43 0.481,-0.411C0.486,-0.391 0.489,-0.369 0.489,-0.345L0.489,-0L0.404,-0Z" style="fill-rule:nonzero;"/>
            </g>
            <g transform="matrix(33.3333,0,0,33.3333,133.405,112.669)">
                <path d="M0.087,-0L0.087,-0.497L0.172,-0.497L0.172,-0L0.087,-0ZM0.187,-0.655C0.187,-0.64 0.181,-0.627 0.17,-0.616C0.159,-0.604 0.145,-0.599 0.13,-0.599C0.114,-0.599 0.1,-0.604 0.09,-0.615C0.079,-0.626 0.073,-0.639 0.073,-0.655C0.073,-0.67 0.079,-0.684 0.09,-0.695C0.1,-0.705 0.114,-0.711 0.13,-0.711C0.146,-0.711 0.16,-0.706 0.171,-0.695C0.182,-0.684 0.187,-0.671 0.187,-0.655Z" style="fill-rule:nonzero;"/>
            </g>
            <g transform="matrix(33.3333,0,0,33.3333,142.039,112.669)">
                <path d="M0.338,-0.003C0.323,0 0.306,0.003 0.289,0.005C0.272,0.007 0.256,0.008 0.242,0.008C0.217,0.008 0.196,0.005 0.179,-0.001C0.162,-0.006 0.148,-0.015 0.138,-0.027C0.128,-0.039 0.121,-0.054 0.116,-0.073C0.111,-0.092 0.109,-0.115 0.109,-0.142L0.109,-0.431L0.007,-0.431L0.007,-0.497L0.109,-0.497L0.109,-0.66L0.194,-0.683L0.194,-0.497L0.334,-0.497L0.334,-0.431L0.194,-0.431L0.194,-0.163C0.194,-0.144 0.195,-0.128 0.198,-0.115C0.2,-0.102 0.204,-0.092 0.209,-0.085C0.214,-0.078 0.221,-0.073 0.23,-0.07C0.239,-0.067 0.25,-0.065 0.264,-0.065C0.289,-0.065 0.311,-0.068 0.331,-0.073L0.338,-0.003Z" style="fill-rule:nonzero;"/>
            </g>
            <g transform="matrix(33.3333,0,0,33.3333,154.405,112.669)">
                <path d="M0.087,-0L0.087,-0.497L0.172,-0.497L0.172,-0L0.087,-0ZM0.187,-0.655C0.187,-0.64 0.181,-0.627 0.17,-0.616C0.159,-0.604 0.145,-0.599 0.13,-0.599C0.114,-0.599 0.1,-0.604 0.09,-0.615C0.079,-0.626 0.073,-0.639 0.073,-0.655C0.073,-0.67 0.079,-0.684 0.09,-0.695C0.1,-0.705 0.114,-0.711 0.13,-0.711C0.146,-0.711 0.16,-0.706 0.171,-0.695C0.182,-0.684 0.187,-0.671 0.187,-0.655Z" style="fill-rule:nonzero;"/>
            </g>
            <g transform="matrix(33.3333,0,0,33.3333,163.039,112.669)">
                <path d="M0.373,-0.305C0.374,-0.348 0.364,-0.382 0.344,-0.406C0.324,-0.429 0.296,-0.441 0.259,-0.441C0.225,-0.441 0.197,-0.429 0.174,-0.406C0.151,-0.382 0.137,-0.348 0.132,-0.305L0.373,-0.305ZM0.46,-0.302C0.46,-0.282 0.459,-0.263 0.458,-0.244L0.13,-0.244C0.129,-0.181 0.142,-0.135 0.168,-0.105C0.193,-0.075 0.233,-0.06 0.286,-0.06C0.311,-0.06 0.335,-0.062 0.359,-0.067C0.383,-0.071 0.408,-0.078 0.433,-0.087L0.444,-0.021C0.416,-0.012 0.388,-0.004 0.36,0.001C0.331,0.006 0.303,0.009 0.275,0.009C0.198,0.009 0.14,-0.012 0.101,-0.054C0.062,-0.096 0.042,-0.16 0.042,-0.246C0.042,-0.283 0.047,-0.317 0.057,-0.349C0.067,-0.381 0.082,-0.409 0.101,-0.432C0.12,-0.455 0.144,-0.474 0.172,-0.487C0.199,-0.5 0.23,-0.506 0.264,-0.506C0.298,-0.506 0.327,-0.501 0.353,-0.491C0.378,-0.48 0.398,-0.466 0.414,-0.447C0.429,-0.428 0.441,-0.406 0.449,-0.382C0.456,-0.357 0.46,-0.331 0.46,-0.302Z" style="fill-rule:nonzero;"/>
            </g>
            <g transform="matrix(33.3333,0,0,33.3333,179.939,112.669)">
                <path d="M0.376,-0.142C0.376,-0.121 0.372,-0.101 0.363,-0.083C0.354,-0.064 0.34,-0.048 0.323,-0.035C0.306,-0.021 0.284,-0.01 0.259,-0.003C0.234,0.005 0.205,0.009 0.172,0.009C0.152,0.009 0.132,0.008 0.111,0.005C0.09,0.002 0.071,-0.001 0.055,-0.005L0.062,-0.081C0.079,-0.075 0.098,-0.07 0.119,-0.066C0.14,-0.062 0.161,-0.06 0.18,-0.06C0.215,-0.06 0.241,-0.067 0.26,-0.08C0.279,-0.093 0.288,-0.112 0.288,-0.135C0.288,-0.152 0.283,-0.166 0.272,-0.177C0.261,-0.188 0.251,-0.195 0.241,-0.2C0.231,-0.204 0.211,-0.212 0.18,-0.223C0.149,-0.234 0.125,-0.244 0.108,-0.254C0.091,-0.264 0.078,-0.278 0.067,-0.296C0.056,-0.314 0.051,-0.337 0.051,-0.364C0.051,-0.405 0.068,-0.439 0.102,-0.466C0.135,-0.493 0.183,-0.506 0.245,-0.506C0.26,-0.506 0.276,-0.505 0.293,-0.504C0.309,-0.502 0.326,-0.5 0.343,-0.497L0.336,-0.425C0.321,-0.43 0.306,-0.433 0.289,-0.436C0.272,-0.439 0.255,-0.44 0.238,-0.44C0.205,-0.44 0.181,-0.434 0.164,-0.422C0.147,-0.409 0.138,-0.392 0.138,-0.371C0.138,-0.354 0.143,-0.34 0.154,-0.329C0.165,-0.318 0.175,-0.311 0.186,-0.307C0.196,-0.302 0.216,-0.295 0.247,-0.284C0.278,-0.273 0.301,-0.262 0.318,-0.252C0.335,-0.241 0.349,-0.227 0.36,-0.21C0.371,-0.192 0.376,-0.169 0.376,-0.142Z" style="fill-rule:nonzero;"/>
            </g>
            <g transform="matrix(33.3333,0,0,33.3333,194.139,112.669)">
                <rect x="0.048" y="-0.323" width="0.234" height="0.07" style="fill-rule:nonzero;"/>
            </g>
            <g transform="matrix(33.3333,0,0,33.3333,205.105,112.669)">
                <path d="M0.541,-0.035C0.512,-0.022 0.482,-0.012 0.45,-0.005C0.417,0.003 0.384,0.007 0.35,0.007C0.299,0.007 0.254,-0.001 0.216,-0.017C0.177,-0.032 0.146,-0.055 0.121,-0.084C0.095,-0.113 0.077,-0.148 0.065,-0.189C0.053,-0.229 0.047,-0.274 0.047,-0.323C0.047,-0.375 0.054,-0.423 0.067,-0.467C0.08,-0.51 0.1,-0.548 0.127,-0.581C0.154,-0.613 0.187,-0.638 0.228,-0.656C0.269,-0.673 0.316,-0.682 0.37,-0.682C0.397,-0.682 0.425,-0.68 0.454,-0.675C0.483,-0.67 0.509,-0.662 0.533,-0.653L0.517,-0.573C0.49,-0.584 0.464,-0.593 0.438,-0.599C0.412,-0.604 0.386,-0.607 0.359,-0.607C0.322,-0.607 0.29,-0.6 0.263,-0.586C0.235,-0.572 0.212,-0.553 0.194,-0.528C0.176,-0.503 0.163,-0.474 0.154,-0.442C0.145,-0.409 0.141,-0.373 0.141,-0.335C0.141,-0.25 0.16,-0.184 0.198,-0.139C0.236,-0.093 0.292,-0.07 0.367,-0.07C0.392,-0.07 0.418,-0.074 0.447,-0.081C0.476,-0.088 0.501,-0.097 0.524,-0.108L0.541,-0.035Z" style="fill-rule:nonzero;"/>
            </g>
            <g transform="matrix(33.3333,0,0,33.3333,223.972,112.669)">
                <path d="M0.373,-0.305C0.374,-0.348 0.364,-0.382 0.344,-0.406C0.324,-0.429 0.296,-0.441 0.259,-0.441C0.225,-0.441 0.197,-0.429 0.174,-0.406C0.151,-0.382 0.137,-0.348 0.132,-0.305L0.373,-0.305ZM0.46,-0.302C0.46,-0.282 0.459,-0.263 0.458,-0.244L0.13,-0.244C0.129,-0.181 0.142,-0.135 0.168,-0.105C0.193,-0.075 0.233,-0.06 0.286,-0.06C0.311,-0.06 0.335,-0.062 0.359,-0.067C0.383,-0.071 0.408,-0.078 0.433,-0.087L0.444,-0.021C0.416,-0.012 0.388,-0.004 0.36,0.001C0.331,0.006 0.303,0.009 0.275,0.009C0.198,0.009 0.14,-0.012 0.101,-0.054C0.062,-0.096 0.042,-0.16 0.042,-0.246C0.042,-0.283 0.047,-0.317 0.057,-0.349C0.067,-0.381 0.082,-0.409 0.101,-0.432C0.12,-0.455 0.144,-0.474 0.172,-0.487C0.199,-0.5 0.23,-0.506 0.264,-0.506C0.298,-0.506 0.327,-0.501 0.353,-0.491C0.378,-0.48 0.398,-0.466 0.414,-0.447C0.429,-0.428 0.441,-0.406 0.449,-0.382C0.456,-0.357 0.46,-0.331 0.46,-0.302Z" style="fill-rule:nonzero;"/>
            </g>
            <g transform="matrix(33.3333,0,0,33.3333,240.872,112.669)">
                <path d="M0.404,-0L0.404,-0.32C0.404,-0.359 0.398,-0.388 0.385,-0.407C0.372,-0.426 0.349,-0.435 0.317,-0.435C0.296,-0.435 0.277,-0.43 0.26,-0.421C0.242,-0.411 0.226,-0.397 0.213,-0.38C0.2,-0.362 0.19,-0.341 0.183,-0.317C0.175,-0.292 0.172,-0.266 0.172,-0.238L0.172,-0L0.087,-0L0.087,-0.497L0.17,-0.497C0.17,-0.481 0.169,-0.463 0.168,-0.443C0.167,-0.422 0.165,-0.405 0.162,-0.39L0.164,-0.39C0.179,-0.425 0.201,-0.454 0.232,-0.475C0.262,-0.496 0.298,-0.506 0.339,-0.506C0.366,-0.506 0.39,-0.502 0.409,-0.495C0.428,-0.487 0.444,-0.476 0.456,-0.462C0.467,-0.447 0.476,-0.43 0.481,-0.411C0.486,-0.391 0.489,-0.369 0.489,-0.345L0.489,-0L0.404,-0Z" style="fill-rule:nonzero;"/>
            </g>
            <g transform="matrix(33.3333,0,0,33.3333,259.705,112.669)">
                <path d="M0.338,-0.003C0.323,0 0.306,0.003 0.289,0.005C0.272,0.007 0.256,0.008 0.242,0.008C0.217,0.008 0.196,0.005 0.179,-0.001C0.162,-0.006 0.148,-0.015 0.138,-0.027C0.128,-0.039 0.121,-0.054 0.116,-0.073C0.111,-0.092 0.109,-0.115 0.109,-0.142L0.109,-0.431L0.007,-0.431L0.007,-0.497L0.109,-0.497L0.109,-0.66L0.194,-0.683L0.194,-0.497L0.334,-0.497L0.334,-0.431L0.194,-0.431L0.194,-0.163C0.194,-0.144 0.195,-0.128 0.198,-0.115C0.2,-0.102 0.204,-0.092 0.209,-0.085C0.214,-0.078 0.221,-0.073 0.23,-0.07C0.239,-0.067 0.25,-0.065 0.264,-0.065C0.289,-0.065 0.311,-0.068 0.331,-0.073L0.338,-0.003Z" style="fill-rule:nonzero;"/>
            </g>
            <g transform="matrix(33.3333,0,0,33.3333,272.072,112.669)">
                <path d="M0.373,-0.305C0.374,-0.348 0.364,-0.382 0.344,-0.406C0.324,-0.429 0.296,-0.441 0.259,-0.441C0.225,-0.441 0.197,-0.429 0.174,-0.406C0.151,-0.382 0.137,-0.348 0.132,-0.305L0.373,-0.305ZM0.46,-0.302C0.46,-0.282 0.459,-0.263 0.458,-0.244L0.13,-0.244C0.129,-0.181 0.142,-0.135 0.168,-0.105C0.193,-0.075 0.233,-0.06 0.286,-0.06C0.311,-0.06 0.335,-0.062 0.359,-0.067C0.383,-0.071 0.408,-0.078 0.433,-0.087L0.444,-0.021C0.416,-0.012 0.388,-0.004 0.36,0.001C0.331,0.006 0.303,0.009 0.275,0.009C0.198,0.009 0.14,-0.012 0.101,-0.054C0.062,-0.096 0.042,-0.16 0.042,-0.246C0.042,-0.283 0.047,-0.317 0.057,-0.349C0.067,-0.381 0.082,-0.409 0.101,-0.432C0.12,-0.455 0.144,-0.474 0.172,-0.487C0.199,-0.5 0.23,-0.506 0.264,-0.506C0.298,-0.506 0.327,-0.501 0.353,-0.491C0.378,-0.48 0.398,-0.466 0.414,-0.447C0.429,-0.428 0.441,-0.406 0.449,-0.382C0.456,-0.357 0.46,-0.331 0.46,-0.302Z" style="fill-rule:nonzero;"/>
            </g>
            <g transform="matrix(33.3333,0,0,33.3333,288.972,112.669)">
                <path d="M0.329,-0.422C0.276,-0.431 0.237,-0.416 0.211,-0.379C0.185,-0.341 0.172,-0.281 0.172,-0.2L0.172,-0L0.087,-0L0.087,-0.497L0.17,-0.497C0.17,-0.481 0.169,-0.462 0.167,-0.44C0.165,-0.418 0.162,-0.397 0.159,-0.377L0.161,-0.376C0.166,-0.395 0.174,-0.412 0.183,-0.429C0.192,-0.446 0.204,-0.46 0.218,-0.473C0.232,-0.485 0.249,-0.494 0.268,-0.5C0.287,-0.506 0.309,-0.508 0.333,-0.505L0.329,-0.422Z" style="fill-rule:nonzero;"/>
            </g>
            <g transform="matrix(33.3333,0,0,33.3333,300.305,112.669)">
                <path d="M0.373,-0.305C0.374,-0.348 0.364,-0.382 0.344,-0.406C0.324,-0.429 0.296,-0.441 0.259,-0.441C0.225,-0.441 0.197,-0.429 0.174,-0.406C0.151,-0.382 0.137,-0.348 0.132,-0.305L0.373,-0.305ZM0.46,-0.302C0.46,-0.282 0.459,-0.263 0.458,-0.244L0.13,-0.244C0.129,-0.181 0.142,-0.135 0.168,-0.105C0.193,-0.075 0.233,-0.06 0.286,-0.06C0.311,-0.06 0.335,-0.062 0.359,-0.067C0.383,-0.071 0.408,-0.078 0.433,-0.087L0.444,-0.021C0.416,-0.012 0.388,-0.004 0.36,0.001C0.331,0.006 0.303,0.009 0.275,0.009C0.198,0.009 0.14,-0.012 0.101,-0.054C0.062,-0.096 0.042,-0.16 0.042,-0.246C0.042,-0.283 0.047,-0.317 0.057,-0.349C0.067,-0.381 0.082,-0.409 0.101,-0.432C0.12,-0.455 0.144,-0.474 0.172,-0.487C0.199,-0.5 0.23,-0.506 0.264,-0.506C0.298,-0.506 0.327,-0.501 0.353,-0.491C0.378,-0.48 0.398,-0.466 0.414,-0.447C0.429,-0.428 0.441,-0.406 0.449,-0.382C0.456,-0.357 0.46,-0.331 0.46,-0.302Z" style="fill-rule:nonzero;"/>
            </g>
            <g transform="matrix(33.3333,0,0,33.3333,317.205,112.669)">
                <path d="M0.386,-0.425C0.371,-0.429 0.357,-0.432 0.342,-0.434C0.327,-0.435 0.311,-0.436 0.295,-0.436C0.27,-0.436 0.248,-0.432 0.229,-0.425C0.209,-0.417 0.192,-0.405 0.178,-0.389C0.164,-0.372 0.153,-0.351 0.146,-0.325C0.138,-0.299 0.134,-0.268 0.134,-0.233C0.134,-0.177 0.143,-0.134 0.162,-0.105C0.18,-0.076 0.208,-0.061 0.246,-0.061C0.267,-0.061 0.287,-0.067 0.304,-0.078C0.321,-0.089 0.336,-0.103 0.349,-0.123C0.361,-0.141 0.37,-0.163 0.377,-0.187C0.383,-0.211 0.386,-0.236 0.386,-0.263L0.386,-0.425ZM0.388,-0C0.388,-0.016 0.389,-0.034 0.391,-0.054C0.392,-0.073 0.394,-0.09 0.397,-0.103L0.395,-0.104C0.381,-0.069 0.359,-0.042 0.33,-0.022C0.3,-0.001 0.266,0.009 0.227,0.009C0.167,0.009 0.122,-0.012 0.091,-0.053C0.059,-0.094 0.044,-0.152 0.044,-0.225C0.044,-0.268 0.05,-0.306 0.062,-0.341C0.073,-0.376 0.09,-0.405 0.113,-0.43C0.135,-0.454 0.162,-0.472 0.194,-0.485C0.225,-0.498 0.261,-0.504 0.301,-0.504C0.314,-0.504 0.327,-0.503 0.34,-0.503C0.353,-0.502 0.369,-0.5 0.386,-0.499L0.386,-0.73L0.471,-0.73L0.471,-0L0.388,-0Z" style="fill-rule:nonzero;"/>
            </g>
            <g transform="matrix(33.3333,0,0,33.3333,343.072,112.669)">
                <path d="M0.333,-0.497C0.327,-0.514 0.322,-0.531 0.317,-0.547C0.312,-0.562 0.308,-0.577 0.304,-0.591L0.303,-0.591C0.298,-0.572 0.293,-0.555 0.288,-0.54C0.283,-0.525 0.279,-0.511 0.274,-0.498L0.18,-0.232L0.427,-0.232L0.333,-0.497ZM0.505,-0L0.449,-0.163L0.158,-0.163L0.101,-0L0.011,-0L0.255,-0.675L0.36,-0.675L0.603,-0L0.505,-0Z" style="fill-rule:nonzero;"/>
            </g>
            <g transform="matrix(33.3333,0,0,33.3333,363.539,112.669)">
                <rect x="0.087" y="-0.675" width="0.087" height="0.675" style="fill-rule:nonzero;"/>
            </g>
        </g>
    </g>
    <g id="Icon" transform="matrix(1,0,0,1,27.7017,-2.16042)">
        <g id="Ring">
            <path d="M193.637,36.819L201.806,46.454" style="fill:none;stroke:rgb(223,63,89);stroke-width:5.28px;"/>
            <path d="M228.051,19.574L230.71,31.759" style="fill:none;stroke:rgb(223,63,89);stroke-width:5.28px;"/>
            <path d="M266.221,20.346L263.134,32.916" style="fill:none;stroke:rgb(223,63,89);stroke-width:5.28px;"/>
            <path d="M299.667,39.476L291.482,48.296" style="fill:none;stroke:rgb(223,63,89);stroke-width:5.28px;"/>
            <path d="M320.77,70.998L309.104,75.717" style="fill:none;stroke:rgb(223,63,89);stroke-width:5.28px;"/>
            <path d="M324.733,108.679L312.932,107.226" style="fill:none;stroke:rgb(223,63,89);stroke-width:5.28px;"/>
            <path d="M310.487,144.146L300.925,136.994" style="fill:none;stroke:rgb(223,63,89);stroke-width:5.28px;"/>
            <path d="M281.465,168.729L275.989,157.714" style="fill:none;stroke:rgb(223,63,89);stroke-width:5.28px;"/>
            <path d="M244.173,176.865L244.289,165.247" style="fill:none;stroke:rgb(223,63,89);stroke-width:5.28px;"/>
            <path d="M207.003,167.453L213.285,156.777" style="fill:none;stroke:rgb(223,63,89);stroke-width:5.28px;"/>
            <path d="M178.924,141.332L188.885,135.02" style="fill:none;stroke:rgb(223,63,89);stroke-width:5.28px;"/>
            <path d="M166.412,105.223L178.174,104.179" style="fill:none;stroke:rgb(223,63,89);stroke-width:5.28px;"/>
            <path d="M171.536,67.944L183.091,72.031" style="fill:none;stroke:rgb(223,63,89);stroke-width:5.28px;"/>
        </g>
        <g id="Gesicht">
            <g transform="matrix(1.17835,0,0,1.68999,-29.3431,-76.7985)">
                <path d="M213.962,89.155C216.306,89.155 218.21,90.472 218.21,92.094C218.21,93.716 216.306,95.033 213.962,95.033C211.617,95.033 209.713,93.716 209.713,92.094C209.713,90.472 211.617,89.155 213.962,89.155ZM213.962,91.078C214.772,91.078 215.429,91.533 215.429,92.094C215.429,92.654 214.772,93.109 213.962,93.109C213.151,93.109 212.494,92.654 212.494,92.094C212.494,91.533 213.151,91.078 213.962,91.078Z" style="fill:rgb(223,63,89);"/>
            </g>
            <g transform="matrix(1.17835,0,0,1.68999,15.4561,-76.7985)">
                <path d="M213.962,89.155C216.306,89.155 218.21,90.472 218.21,92.094C218.21,93.716 216.306,95.033 213.962,95.033C211.617,95.033 209.713,93.716 209.713,92.094C209.713,90.472 211.617,89.155 213.962,89.155ZM213.962,91.078C214.772,91.078 215.429,91.533 215.429,92.094C215.429,92.654 214.772,93.109 213.962,93.109C213.151,93.109 212.494,92.654 212.494,92.094C212.494,91.533 213.151,91.078 213.962,91.078Z" style="fill:rgb(223,63,89);"/>
            </g>
            <path d="M228.823,100.624C230.323,111.987 235.807,117.703 244.674,117.938C254.023,118.186 260.227,112.3 261.837,100.449" style="fill:none;stroke:rgb(223,63,89);stroke-width:5.28px;"/>
        </g>
        <g id="Buch">
            <path d="M200.326,62.276L200.532,135.834C215.917,128.986 230.69,129.505 244.903,136.178C252.427,132.568 260.268,130.871 267.723,130.826C275.12,130.782 282.13,132.362 289.448,136.364L290.098,62.689C282.926,58.649 275.66,56.743 268.195,56.677C260.787,56.612 253.182,58.354 245.488,62.156C246.022,62.169 233.524,56.915 220.748,56.804C210.89,56.719 200.056,62.276 200.326,62.276Z" style="fill:none;stroke:rgb(223,63,89);stroke-width:5.28px;"/>
            <path d="M245.212,63.035L245.573,134.945" style="fill:none;stroke:rgb(223,63,89);stroke-width:5.28px;"/>
        </g>
    </g>
</svg>
